<svg width="14" height="14" viewBox="0 0 14 14" fill="none" xmlns="http://www.w3.org/2000/svg">
<path d="M9.33333 2.33333C9.33333 3.622 8.28866 4.66667 7 4.66667C5.71134 4.66667 4.66667 3.622 4.66667 2.33333C4.66667 1.04467 5.71134 0 7 0C8.28866 0 9.33333 1.04467 9.33333 2.33333Z" fill="#D9D9D9"/>
<path d="M14 7C14 8.28866 12.9553 9.33333 11.6667 9.33333C10.378 9.33333 9.33333 8.28866 9.33333 7C9.33333 5.71134 10.378 4.66667 11.6667 4.66667C12.9553 4.66667 14 5.71134 14 7Z" fill="#D9D9D9"/>
<path d="M9.33333 11.6667C9.33333 12.9553 8.28866 14 7 14C5.71134 14 4.66667 12.9553 4.66667 11.6667C4.66667 10.378 5.71134 9.33333 7 9.33333C8.28866 9.33333 9.33333 10.378 9.33333 11.6667Z" fill="#D9D9D9"/>
<path d="M4.66667 7C4.66667 8.28866 3.622 9.33333 2.33333 9.33333C1.04467 9.33333 0 8.28866 0 7C0 5.71134 1.04467 4.66667 2.33333 4.66667C3.622 4.66667 4.66667 5.71134 4.66667 7Z" fill="#D9D9D9"/>
</svg>
