<?xml version="1.0" encoding="UTF-8" standalone="no"?>
<!DOCTYPE svg PUBLIC "-//W3C//DTD SVG 1.1//EN" "http://www.w3.org/Graphics/SVG/1.1/DTD/svg11.dtd">
<!-- Created with Vectornator (http://vectornator.io/) -->
<svg height="100%" stroke-miterlimit="10" style="fill-rule:nonzero;clip-rule:evenodd;stroke-linecap:round;stroke-linejoin:round;" version="1.1" viewBox="217.094 105.188 589.812 813.656" width="100%" xml:space="preserve" xmlns="http://www.w3.org/2000/svg" xmlns:vectornator="http://vectornator.io" xmlns:xlink="http://www.w3.org/1999/xlink">
<defs/>
<clipPath id="ArtboardFrame">
<rect height="813.656" width="589.812" x="217.094" y="105.188"/>
</clipPath>
<g clip-path="url(#ArtboardFrame)" id="Layer" vectornator:layerName="Layer">
<path d="M217.094 105.188L217.094 918.844L295.531 918.844L318.531 918.844L559.156 918.844C559.156 918.844 806.906 918.853 806.906 679.406C806.906 494.317 657.233 443.634 589.094 430.094C628.007 406.447 662.969 364.048 662.969 287.844C662.969 115.804 482.5 105.188 482.5 105.188L318.531 105.188L295.531 105.188L217.094 105.188ZM316.75 518.156L417.25 518.156C426.33 518.156 433.687 525.514 433.688 534.594L433.688 534.938C433.688 544.017 426.33 551.346 417.25 551.312L349.969 551.062C340.889 551.029 333.495 558.358 333.469 567.438L333.281 635.094C333.255 644.174 325.861 651.531 316.781 651.531L316.75 651.531C307.67 651.531 300.312 644.174 300.312 635.094L300.312 534.594C300.312 525.514 307.67 518.156 316.75 518.156ZM513.188 518.156L613.688 518.156C622.768 518.156 630.125 525.514 630.125 534.594L630.125 635.094C630.125 644.174 622.767 651.531 613.688 651.531L613.656 651.531C604.576 651.531 597.183 644.174 597.156 635.094L596.969 567.438C596.942 558.358 589.549 551.029 580.469 551.062L513.188 551.312C504.108 551.346 496.75 544.017 496.75 534.938L496.75 534.594C496.75 525.514 504.108 518.156 513.188 518.156ZM390.625 614.844L390.969 615.156L539.969 675.094L498.781 699.875L532.375 732L516.406 748.844L482.531 717.281L460.406 760.062L390.844 615.312L390.469 614.969L390.719 615.062L390.625 614.844ZM316.75 713.219L316.781 713.219C325.861 713.219 333.255 720.576 333.281 729.656L333.469 797.312C333.495 806.393 340.889 813.721 349.969 813.688L417.25 813.438C426.33 813.404 433.688 820.733 433.688 829.812L433.688 830.156C433.687 839.236 426.33 846.594 417.25 846.594L316.75 846.594C307.67 846.594 300.312 839.236 300.312 830.156L300.312 729.656C300.313 720.576 307.67 713.219 316.75 713.219ZM613.656 713.219L613.688 713.219C622.767 713.219 630.125 720.576 630.125 729.656L630.125 830.156C630.125 839.236 622.768 846.594 613.688 846.594L513.188 846.594C504.108 846.594 496.75 839.236 496.75 830.156L496.75 829.812C496.75 820.732 504.108 813.404 513.188 813.438L580.469 813.688C589.549 813.721 596.942 806.393 596.969 797.312L597.156 729.656C597.183 720.576 604.576 713.219 613.656 713.219Z" fill="#ffffff" fill-rule="nonzero" opacity="1" stroke="none" vectornator:layerName="Curve 1"/>
</g>
</svg>
